<?xml version="1.0" encoding="UTF-8" standalone="no"?>
<svg
        xmlns:dc="http://purl.org/dc/elements/1.1/"
        xmlns:cc="http://creativecommons.org/ns#"
        xmlns:rdf="http://www.w3.org/1999/02/22-rdf-syntax-ns#"
        xmlns:sodipodi="http://sodipodi.sourceforge.net/DTD/sodipodi-0.dtd"
        xmlns:inkscape="http://www.inkscape.org/namespaces/inkscape"
        xmlns="http://www.w3.org/2000/svg"
        viewBox="0 0 24 24"
        fill="white"
        width="48px"
        height="48px"
        version="1.1"
        id="svg3733"
        sodipodi:docname="electric-bike-48dp.svg"
        inkscape:version="0.92.4 (5da689c313, 2019-01-14)">
  <metadata
     id="metadata3739">
    <rdf:RDF>
      <cc:Work
         rdf:about="">
        <dc:format>image/svg+xml</dc:format>
        <dc:type
           rdf:resource="http://purl.org/dc/dcmitype/StillImage" />
      </cc:Work>
    </rdf:RDF>
  </metadata>
  <defs
     id="defs3737" />
  <sodipodi:namedview
     pagecolor="#ffffff"
     bordercolor="#666666"
     borderopacity="1"
     objecttolerance="10"
     gridtolerance="10"
     guidetolerance="10"
     inkscape:pageopacity="0"
     inkscape:pageshadow="2"
     inkscape:window-width="1920"
     inkscape:window-height="1017"
     id="namedview3735"
     showgrid="false"
     inkscape:zoom="17.708333"
     inkscape:cx="24"
     inkscape:cy="24"
     inkscape:window-x="-8"
     inkscape:window-y="-8"
     inkscape:window-maximized="1"
     inkscape:current-layer="svg3733" />
  <path
     d="M0 0h24v24H0z"
     fill="none"
     id="path3727" />
  <path
     d="M15.5 5.5c1.1 0 2-.9 2-2s-.9-2-2-2-2 .9-2 2 .9 2 2 2zM5 12c-2.8 0-5 2.2-5 5s2.2 5 5 5 5-2.2 5-5-2.2-5-5-5zm0 8.5c-1.9 0-3.5-1.6-3.5-3.5s1.6-3.5 3.5-3.5 3.5 1.6 3.5 3.5-1.6 3.5-3.5 3.5zm5.8-10l2.4-2.4.8.8c1.3 1.3 3 2.1 5.1 2.1V9c-1.5 0-2.7-.6-3.6-1.5l-1.9-1.9c-.5-.4-1-.6-1.6-.6s-1.1.2-1.4.6L7.8 8.4c-.4.4-.6.9-.6 1.4 0 .6.2 1.1.6 1.4L11 14v5h2v-6.2l-2.2-2.3zM19 12c-2.8 0-5 2.2-5 5s2.2 5 5 5 5-2.2 5-5-2.2-5-5-5zm0 8.5c-1.9 0-3.5-1.6-3.5-3.5s1.6-3.5 3.5-3.5 3.5 1.6 3.5 3.5-1.6 3.5-3.5 3.5z"
     id="path3729" />
  <path
     d="M 5.2702072,1.8936471 H 4.4395296 V 0.89882356 H 2.4498825 V 1.8936471 H 1.6192049 c -0.3631106,0 -0.66155775,0.298447 -0.66155775,0.6615576 v 7.6253223 c 0,0.368085 0.29844715,0.666532 0.66155775,0.666532 h 3.6460282 c 0.3680847,0 0.666532,-0.298447 0.666532,-0.661558 V 2.5552047 c 0,-0.3631106 -0.2984473,-0.6615576 -0.6615579,-0.6615576 z M 2.9472943,9.8522351 V 7.1164701 H 1.9524707 L 3.9421178,3.3858824 v 2.7357647 h 0.9948235 z"
     id="path3731"
     inkscape:connector-curvature="0"
     style="stroke-width:0.49741176" />
</svg>
