<?xml version="1.0" encoding="UTF-8" standalone="no"?>
<svg
        xmlns:dc="http://purl.org/dc/elements/1.1/"
        xmlns:cc="http://creativecommons.org/ns#"
        xmlns:rdf="http://www.w3.org/1999/02/22-rdf-syntax-ns#"
        xmlns:sodipodi="http://sodipodi.sourceforge.net/DTD/sodipodi-0.dtd"
        xmlns:inkscape="http://www.inkscape.org/namespaces/inkscape"
        xmlns="http://www.w3.org/2000/svg"
        viewBox="0 0 24 24"
        fill="white"
        width="48px"
        height="48px"
        version="1.1"
        id="svg3766"
        sodipodi:docname="electric-car-48p.svg"
        inkscape:version="0.92.4 (5da689c313, 2019-01-14)">
  <metadata
     id="metadata3772">
    <rdf:RDF>
      <cc:Work
         rdf:about="">
        <dc:format>image/svg+xml</dc:format>
        <dc:type
           rdf:resource="http://purl.org/dc/dcmitype/StillImage" />
      </cc:Work>
    </rdf:RDF>
  </metadata>
  <defs
     id="defs3770" />
  <sodipodi:namedview
     pagecolor="#ffffff"
     bordercolor="#666666"
     borderopacity="1"
     objecttolerance="10"
     gridtolerance="10"
     guidetolerance="10"
     inkscape:pageopacity="0"
     inkscape:pageshadow="2"
     inkscape:window-width="1920"
     inkscape:window-height="1017"
     id="namedview3768"
     showgrid="false"
     inkscape:zoom="14.94"
     inkscape:cx="24"
     inkscape:cy="24"
     inkscape:window-x="-8"
     inkscape:window-y="-8"
     inkscape:window-maximized="1"
     inkscape:current-layer="svg3766" />
  <path
     d="M18.92 6.01C18.72 5.42 18.16 5 17.5 5h-11c-.66 0-1.21.42-1.42 1.01L3 12v8c0 .55.45 1 1 1h1c.55 0 1-.45 1-1v-1h12v1c0 .55.45 1 1 1h1c.55 0 1-.45 1-1v-8l-2.08-5.99zM6.5 16c-.83 0-1.5-.67-1.5-1.5S5.67 13 6.5 13s1.5.67 1.5 1.5S7.33 16 6.5 16zm11 0c-.83 0-1.5-.67-1.5-1.5s.67-1.5 1.5-1.5 1.5.67 1.5 1.5-.67 1.5-1.5 1.5zM5 11l1.5-4.5h11L19 11H5z"
     id="path3762" />
  <path
     d="M0 0h24v24H0z"
     fill="none"
     id="path3764" />
  <path
     d="M 23.107111,1.3598023 H 22.511172 V 0.64610324 H 21.083774 V 1.3598023 h -0.595939 c -0.2605,0 -0.47461,0.2141097 -0.47461,0.4746099 v 5.4705033 c 0,0.2640689 0.21411,0.4781787 0.47461,0.4781787 h 2.615707 c 0.264069,0 0.478179,-0.2141098 0.478179,-0.4746102 V 1.8344122 c 0,-0.2605002 -0.21411,-0.4746099 -0.47461,-0.4746099 z M 21.440623,7.0693947 V 5.1067221 H 20.726925 L 22.154323,2.430351 v 1.9626724 h 0.713698 z"
     id="path3731"
     inkscape:connector-curvature="0"
     style="stroke-width:0.35684952" />
</svg>
